# xmcd
#
# Track frame offsets: 
#        150
#        14071
#        26583
#        37451
#        51454
#        71156
#        86762
#        106729
#        121443
#        147903
#        160025
#        174990
#        192226
#
# Disc length: 2754 seconds
#
# Revision: 0
# Processed by: cddbd v1.5.2PL0 Copyright (c) Steve Scherf et al.
# Submitted via: ExactAudioCopy v0.95b3
#
DISCID=bc0ac00d
DTITLE=Teddy Thompson - Up Front and Down Low
DYEAR=2007
DGENRE=Country
TTITLE0=Change Of Heart
TTITLE1=Touching Home
TTITLE2=Walking The Floor Over You
TTITLE3=(From Now On All My Friends Are Gonna Be) Strangers
TTITLE4=I'm Left, You're Right, She's Gone
TTITLE5=My Heart Echoes
TTITLE6=The Worst is Yet to Come
TTITLE7=My Blue Tears
TTITLE8=Down Low
TTITLE9=You Finally Said Something Good (When You Said Goodbye)
TTITLE10=She Thinks I Still Care
TTITLE11=Let's Think About Living
TTITLE12=Don't Ask Me To Be Friends
EXTD=
EXTT0=
EXTT1=
EXTT2=
EXTT3=
EXTT4=
EXTT5=
EXTT6=
EXTT7=
EXTT8=
EXTT9=
EXTT10=
EXTT11=
EXTT12=
PLAYORDER=
